# xmcd CD database file
#
# Track frame offsets:
#	150
#	23732
#	41827
#	76200
#	92195
#	122414
#	150466
#	172164
#	188473
#	213506
#
# Disc length: 3166 seconds
#
# Revision: 4
# Processed by: cddbd v1.5.2PL0 Copyright (c) Steve Scherf et al.
# Submitted via: CDex 1.51
#
DISCID=770c5c0a
DTITLE=Popa Chubby - I'm Feelin' Lucky - CD1
DYEAR=2014
DGENRE=Blues Rock
TTITLE0=Three Little Words
TTITLE1=I'm Feelin' Lucky
TTITLE2=Feat.Mike Zito_Rock On Bluesman
TTITLE3=One Leg At A Time
TTITLE4=Rollin' And Tumblin'
TTITLE5=Feat.Dana Fuchs_Come To Me
TTITLE6=Save Your Own Life
TTITLE7=I'm A Pitbull (Nothin' But Love)
TTITLE8=Too Much Information
TTITLE9=The Way It Is
EXTD=YEAR: 2014
EXTT0=
EXTT1=
EXTT2=
EXTT3=
EXTT4=
EXTT5=
EXTT6=
EXTT7=
EXTT8=
EXTT9=
PLAYORDER=
